<?xml version="1.0" encoding="UTF-8" standalone="no"?>
<svg width="431px" height="264px" viewBox="0 0 431 264" version="1.1" xmlns="http://www.w3.org/2000/svg" xmlns:xlink="http://www.w3.org/1999/xlink">
    <!-- Generator: Sketch 3.6.1 (26313) - http://www.bohemiancoding.com/sketch -->
    <title>Group</title>
    <desc>Created with Sketch.</desc>
    <defs></defs>
    <g id="Page-1" stroke="none" stroke-width="1" fill="none" fill-rule="evenodd">
        <g id="Desktop" transform="translate(-246.000000, -702.000000)">
            <g id="Group" transform="translate(198.000000, 670.000000)">
                <rect id="Rectangle-2" x="0" y="0" width="520" height="310"></rect>
                <path d="M65.432,32.136 L65.432,80.664 L65.864,80.664 C66.7280043,79.5119942 67.8319933,78.3120062 69.176,77.064 C70.5200067,75.8159938 72.1279906,74.6640053 74,73.608 C75.8720094,72.5519947 78.0559875,71.6640036 80.552,70.944 C83.0480125,70.2239964 85.8799842,69.864 89.048,69.864 C93.9440245,69.864 98.4559794,70.7999906 102.584,72.672 C106.712021,74.5440094 110.263985,77.1119837 113.24,80.376 C116.216015,83.6400163 118.519992,87.4799779 120.152,91.896 C121.784008,96.3120221 122.6,101.063975 122.6,106.152 C122.6,111.240025 121.808008,116.015978 120.224,120.48 C118.639992,124.944022 116.384015,128.831983 113.456,132.144 C110.527985,135.456017 106.976021,138.09599 102.8,140.064 C98.6239791,142.03201 93.8960264,143.016 88.616,143.016 C83.7199755,143.016 79.1360214,141.960011 74.864,139.848 C70.5919786,137.735989 67.256012,134.66402 64.856,130.632 L64.568,130.632 L64.568,141 L48.152,141 L48.152,32.136 L65.432,32.136 Z M105.032,106.152 C105.032,103.463987 104.624004,100.800013 103.808,98.16 C102.991996,95.5199868 101.768008,93.1440106 100.136,91.032 C98.5039918,88.9199894 96.4400125,87.2160065 93.944,85.92 C91.4479875,84.6239935 88.5200168,83.976 85.16,83.976 C81.9919842,83.976 79.1600125,84.6479933 76.664,85.992 C74.1679875,87.3360067 72.0320089,89.0639894 70.256,91.176 C68.4799911,93.2880106 67.1360046,95.6879866 66.224,98.376 C65.3119954,101.064013 64.856,103.751987 64.856,106.44 C64.856,109.128013 65.3119954,111.791987 66.224,114.432 C67.1360046,117.072013 68.4799911,119.447989 70.256,121.56 C72.0320089,123.672011 74.1679875,125.375994 76.664,126.672 C79.1600125,127.968006 81.9919842,128.616 85.16,128.616 C88.5200168,128.616 91.4479875,127.944007 93.944,126.6 C96.4400125,125.255993 98.5039918,123.528011 100.136,121.416 C101.768008,119.303989 102.991996,116.904013 103.808,114.216 C104.624004,111.527987 105.032,108.840013 105.032,106.152 L105.032,106.152 Z M137.592,71.88 L154.872,71.88 L154.872,141 L137.592,141 L137.592,71.88 Z M135.144,48.408 C135.144,45.6239861 136.17599,43.2000103 138.24,41.136 C140.30401,39.0719897 142.919984,38.04 146.088,38.04 C149.256016,38.04 151.919989,39.0239902 154.08,40.992 C156.240011,42.9600098 157.32,45.4319851 157.32,48.408 C157.32,51.3840149 156.240011,53.8559902 154.08,55.824 C151.919989,57.7920098 149.256016,58.776 146.088,58.776 C142.919984,58.776 140.30401,57.7440103 138.24,55.68 C136.17599,53.6159897 135.144,51.1920139 135.144,48.408 L135.144,48.408 Z M163.96,85.704 L163.96,71.88 L176.056,71.88 L176.056,51.864 L193.048,51.864 L193.048,71.88 L210.328,71.88 L210.328,85.704 L193.048,85.704 L193.048,117.816 C193.048,120.888015 193.599994,123.43199 194.704,125.448 C195.808006,127.46401 198.279981,128.472 202.12,128.472 C203.272006,128.472 204.519993,128.352001 205.864,128.112 C207.208007,127.871999 208.407995,127.512002 209.464,127.032 L210.04,140.568 C208.503992,141.144003 206.680011,141.599998 204.568,141.936 C202.455989,142.272002 200.44001,142.44 198.52,142.44 C193.911977,142.44 190.168014,141.792006 187.288,140.496 C184.407986,139.199994 182.128008,137.424011 180.448,135.168 C178.767992,132.911989 177.616003,130.320015 176.992,127.392 C176.367997,124.463985 176.056,121.320017 176.056,117.96 L176.056,85.704 L163.96,85.704 Z M268.088,91.032 C266.743993,89.1119904 264.728013,87.5040065 262.04,86.208 C259.351987,84.9119935 256.616014,84.264 253.832,84.264 C250.663984,84.264 247.880012,84.9119935 245.48,86.208 C243.079988,87.5040065 241.088008,89.2079894 239.504,91.32 C237.919992,93.4320106 236.744004,95.8079868 235.976,98.448 C235.207996,101.088013 234.824,103.751987 234.824,106.44 C234.824,109.128013 235.231996,111.791987 236.048,114.432 C236.864004,117.072013 238.087992,119.447989 239.72,121.56 C241.352008,123.672011 243.391988,125.375994 245.84,126.672 C248.288012,127.968006 251.143984,128.616 254.408,128.616 C257.096013,128.616 259.783987,128.088005 262.472,127.032 C265.160013,125.975995 267.319992,124.44001 268.952,122.424 L279.752,133.368 C276.871986,136.440015 273.200022,138.815992 268.736,140.496 C264.271978,142.176008 259.448026,143.016 254.264,143.016 C249.175975,143.016 244.352023,142.200008 239.792,140.568 C235.231977,138.935992 231.248017,136.536016 227.84,133.368 C224.431983,130.199984 221.74401,126.360023 219.776,121.848 C217.80799,117.335977 216.824,112.200029 216.824,106.44 C216.824,100.871972 217.80799,95.8320226 219.776,91.32 C221.74401,86.8079774 224.407983,82.9680158 227.768,79.8 C231.128017,76.6319842 235.039978,74.1840086 239.504,72.456 C243.968022,70.7279914 248.743975,69.864 253.832,69.864 C258.920025,69.864 263.839976,70.8239904 268.592,72.744 C273.344024,74.6640096 277.111986,77.3039832 279.896,80.664 L268.088,91.032 Z M285.096,106.152 C285.096,100.679973 286.07999,95.7120223 288.048,91.248 C290.01601,86.7839777 292.679983,82.9680158 296.04,79.8 C299.400017,76.6319842 303.383977,74.1840086 307.992,72.456 C312.600023,70.7279914 317.495974,69.864 322.68,69.864 C327.864026,69.864 332.759977,70.7279914 337.368,72.456 C341.976023,74.1840086 345.959983,76.6319842 349.32,79.8 C352.680017,82.9680158 355.34399,86.7839777 357.312,91.248 C359.28001,95.7120223 360.264,100.679973 360.264,106.152 C360.264,111.624027 359.28001,116.615977 357.312,121.128 C355.34399,125.640023 352.680017,129.503984 349.32,132.72 C345.959983,135.936016 341.976023,138.455991 337.368,140.28 C332.759977,142.104009 327.864026,143.016 322.68,143.016 C317.495974,143.016 312.600023,142.104009 307.992,140.28 C303.383977,138.455991 299.400017,135.936016 296.04,132.72 C292.679983,129.503984 290.01601,125.640023 288.048,121.128 C286.07999,116.615977 285.096,111.624027 285.096,106.152 L285.096,106.152 Z M302.664,106.152 C302.664,108.840013 303.071996,111.527987 303.888,114.216 C304.704004,116.904013 305.927992,119.303989 307.56,121.416 C309.192008,123.528011 311.255988,125.255993 313.752,126.6 C316.248012,127.944007 319.223983,128.616 322.68,128.616 C326.136017,128.616 329.111988,127.944007 331.608,126.6 C334.104012,125.255993 336.167992,123.528011 337.8,121.416 C339.432008,119.303989 340.655996,116.904013 341.472,114.216 C342.288004,111.527987 342.696,108.840013 342.696,106.152 C342.696,103.463987 342.288004,100.800013 341.472,98.16 C340.655996,95.5199868 339.432008,93.1440106 337.8,91.032 C336.167992,88.9199894 334.104012,87.2160065 331.608,85.92 C329.111988,84.6239935 326.136017,83.976 322.68,83.976 C319.223983,83.976 316.248012,84.6239935 313.752,85.92 C311.255988,87.2160065 309.192008,88.9199894 307.56,91.032 C305.927992,93.1440106 304.704004,95.5199868 303.888,98.16 C303.071996,100.800013 302.664,103.463987 302.664,106.152 L302.664,106.152 Z M375.256,71.88 L392.536,71.88 L392.536,141 L375.256,141 L375.256,71.88 Z M372.808,48.408 C372.808,45.6239861 373.83999,43.2000103 375.904,41.136 C377.96801,39.0719897 380.583984,38.04 383.752,38.04 C386.920016,38.04 389.583989,39.0239902 391.744,40.992 C393.904011,42.9600098 394.984,45.4319851 394.984,48.408 C394.984,51.3840149 393.904011,53.8559902 391.744,55.824 C389.583989,57.7920098 386.920016,58.776 383.752,58.776 C380.583984,58.776 377.96801,57.7440103 375.904,55.68 C373.83999,53.6159897 372.808,51.1920139 372.808,48.408 L372.808,48.408 Z M411.56,71.88 L427.976,71.88 L427.976,82.968 L428.264,82.968 C429.800008,79.5119827 432.463981,76.4640132 436.256,73.824 C440.048019,71.1839868 444.535974,69.864 449.72,69.864 C454.232023,69.864 458.095984,70.6559921 461.312,72.24 C464.528016,73.8240079 467.16799,75.911987 469.232,78.504 C471.29601,81.096013 472.807995,84.0719832 473.768,87.432 C474.728005,90.7920168 475.208,94.2479822 475.208,97.8 L475.208,141 L457.928,141 L457.928,102.696 C457.928,100.67999 457.784001,98.568011 457.496,96.36 C457.207999,94.151989 456.584005,92.1600089 455.624,90.384 C454.663995,88.6079911 453.344008,87.1440058 451.664,85.992 C449.983992,84.8399942 447.752014,84.264 444.968,84.264 C442.183986,84.264 439.78401,84.8159945 437.768,85.92 C435.75199,87.0240055 434.096006,88.4399914 432.8,90.168 C431.503994,91.8960086 430.520003,93.8879887 429.848,96.144 C429.175997,98.4000113 428.84,100.679988 428.84,102.984 L428.84,141 L411.56,141 L411.56,71.88 Z M235.128,191.88 L235.128,265.176 C235.128,269.304021 234.792003,273.215982 234.12,276.912 C233.447997,280.608018 232.176009,283.823986 230.304,286.56 C228.431991,289.296014 225.888016,291.479992 222.672,293.112 C219.455984,294.744008 215.256026,295.56 210.072,295.56 C208.631993,295.56 207.192007,295.464001 205.752,295.272 C204.311993,295.079999 203.160004,294.888001 202.296,294.696 L203.736,280.008 C204.504004,280.200001 205.319996,280.344 206.184,280.44 C207.048004,280.536 207.815997,280.584 208.488,280.584 C210.50401,280.584 212.135994,280.200004 213.384,279.432 C214.632006,278.663996 215.591997,277.608007 216.264,276.264 C216.936003,274.919993 217.367999,273.360009 217.56,271.584 C217.752001,269.807991 217.848,267.91201 217.848,265.896 L217.848,191.88 L235.128,191.88 Z M215.4,168.408 C215.4,165.623986 216.43199,163.20001 218.496,161.136 C220.56001,159.07199 223.175984,158.04 226.344,158.04 C229.512016,158.04 232.175989,159.02399 234.336,160.992 C236.496011,162.96001 237.576,165.431985 237.576,168.408 C237.576,171.384015 236.496011,173.85599 234.336,175.824 C232.175989,177.79201 229.512016,178.776 226.344,178.776 C223.175984,178.776 220.56001,177.74401 218.496,175.68 C216.43199,173.61599 215.4,171.192014 215.4,168.408 L215.4,168.408 Z M250.12,226.152 C250.12,220.679973 251.10399,215.712022 253.072,211.248 C255.04001,206.783978 257.703983,202.968016 261.064,199.8 C264.424017,196.631984 268.407977,194.184009 273.016,192.456 C277.624023,190.727991 282.519974,189.864 287.704,189.864 C292.888026,189.864 297.783977,190.727991 302.392,192.456 C307.000023,194.184009 310.983983,196.631984 314.344,199.8 C317.704017,202.968016 320.36799,206.783978 322.336,211.248 C324.30401,215.712022 325.288,220.679973 325.288,226.152 C325.288,231.624027 324.30401,236.615977 322.336,241.128 C320.36799,245.640023 317.704017,249.503984 314.344,252.72 C310.983983,255.936016 307.000023,258.455991 302.392,260.28 C297.783977,262.104009 292.888026,263.016 287.704,263.016 C282.519974,263.016 277.624023,262.104009 273.016,260.28 C268.407977,258.455991 264.424017,255.936016 261.064,252.72 C257.703983,249.503984 255.04001,245.640023 253.072,241.128 C251.10399,236.615977 250.12,231.624027 250.12,226.152 L250.12,226.152 Z M267.688,226.152 C267.688,228.840013 268.095996,231.527987 268.912,234.216 C269.728004,236.904013 270.951992,239.303989 272.584,241.416 C274.216008,243.528011 276.279988,245.255993 278.776,246.6 C281.272012,247.944007 284.247983,248.616 287.704,248.616 C291.160017,248.616 294.135988,247.944007 296.632,246.6 C299.128012,245.255993 301.191992,243.528011 302.824,241.416 C304.456008,239.303989 305.679996,236.904013 306.496,234.216 C307.312004,231.527987 307.72,228.840013 307.72,226.152 C307.72,223.463987 307.312004,220.800013 306.496,218.16 C305.679996,215.519987 304.456008,213.144011 302.824,211.032 C301.191992,208.919989 299.128012,207.216006 296.632,205.92 C294.135988,204.623994 291.160017,203.976 287.704,203.976 C284.247983,203.976 281.272012,204.623994 278.776,205.92 C276.279988,207.216006 274.216008,208.919989 272.584,211.032 C270.951992,213.144011 269.728004,215.519987 268.912,218.16 C268.095996,220.800013 267.688,223.463987 267.688,226.152 L267.688,226.152 Z M357.56,152.136 L357.56,200.664 L357.992,200.664 C358.856004,199.511994 359.959993,198.312006 361.304,197.064 C362.648007,195.815994 364.255991,194.664005 366.128,193.608 C368.000009,192.551995 370.183988,191.664004 372.68,190.944 C375.176012,190.223996 378.007984,189.864 381.176,189.864 C386.072024,189.864 390.583979,190.799991 394.712,192.672 C398.840021,194.544009 402.391985,197.111984 405.368,200.376 C408.344015,203.640016 410.647992,207.479978 412.28,211.896 C413.912008,216.312022 414.728,221.063975 414.728,226.152 C414.728,231.240025 413.936008,236.015978 412.352,240.48 C410.767992,244.944022 408.512015,248.831983 405.584,252.144 C402.655985,255.456017 399.104021,258.09599 394.928,260.064 C390.751979,262.03201 386.024026,263.016 380.744,263.016 C375.847976,263.016 371.264021,261.960011 366.992,259.848 C362.719979,257.735989 359.384012,254.66402 356.984,250.632 L356.696,250.632 L356.696,261 L340.28,261 L340.28,152.136 L357.56,152.136 Z M397.16,226.152 C397.16,223.463987 396.752004,220.800013 395.936,218.16 C395.119996,215.519987 393.896008,213.144011 392.264,211.032 C390.631992,208.919989 388.568012,207.216006 386.072,205.92 C383.575988,204.623994 380.648017,203.976 377.288,203.976 C374.119984,203.976 371.288012,204.647993 368.792,205.992 C366.295988,207.336007 364.160009,209.063989 362.384,211.176 C360.607991,213.288011 359.264005,215.687987 358.352,218.376 C357.439995,221.064013 356.984,223.751987 356.984,226.44 C356.984,229.128013 357.439995,231.791987 358.352,234.432 C359.264005,237.072013 360.607991,239.447989 362.384,241.56 C364.160009,243.672011 366.295988,245.375994 368.792,246.672 C371.288012,247.968006 374.119984,248.616 377.288,248.616 C380.648017,248.616 383.575988,247.944007 386.072,246.6 C388.568012,245.255993 390.631992,243.528011 392.264,241.416 C393.896008,239.303989 395.119996,236.904013 395.936,234.216 C396.752004,231.527987 397.16,228.840013 397.16,226.152 L397.16,226.152 Z M467.304,210.312 C465.767992,208.29599 463.656013,206.544007 460.968,205.056 C458.279987,203.567993 455.352016,202.824 452.184,202.824 C449.399986,202.824 446.856012,203.399994 444.552,204.552 C442.247988,205.704006 441.096,207.623987 441.096,210.312 C441.096,213.000013 442.367987,214.895994 444.912,216 C447.456013,217.104006 451.175976,218.231994 456.072,219.384 C458.664013,219.960003 461.279987,220.727995 463.92,221.688 C466.560013,222.648005 468.959989,223.919992 471.12,225.504 C473.280011,227.088008 475.031993,229.055988 476.376,231.408 C477.720007,233.760012 478.392,236.615983 478.392,239.976 C478.392,244.200021 477.600008,247.775985 476.016,250.704 C474.431992,253.632015 472.320013,256.007991 469.68,257.832 C467.039987,259.656009 463.968018,260.975996 460.464,261.792 C456.959982,262.608004 453.336019,263.016 449.592,263.016 C444.215973,263.016 438.984025,262.03201 433.896,260.064 C428.807975,258.09599 424.584017,255.288018 421.224,251.64 L432.6,240.984 C434.52001,243.480012 437.015985,245.543992 440.088,247.176 C443.160015,248.808008 446.567981,249.624 450.312,249.624 C451.560006,249.624 452.831994,249.480001 454.128,249.192 C455.424006,248.903999 456.623994,248.448003 457.728,247.824 C458.832006,247.199997 459.719997,246.360005 460.392,245.304 C461.064003,244.247995 461.4,242.952008 461.4,241.416 C461.4,238.535986 460.080013,236.472006 457.44,235.224 C454.799987,233.975994 450.840026,232.728006 445.56,231.48 C442.967987,230.903997 440.448012,230.160005 438,229.248 C435.551988,228.335995 433.36801,227.136007 431.448,225.648 C429.52799,224.159993 427.992006,222.312011 426.84,220.104 C425.687994,217.895989 425.112,215.160016 425.112,211.896 C425.112,208.055981 425.903992,204.744014 427.488,201.96 C429.072008,199.175986 431.159987,196.896009 433.752,195.12 C436.344013,193.343991 439.271984,192.024004 442.536,191.16 C445.800016,190.295996 449.159983,189.864 452.616,189.864 C457.608025,189.864 462.479976,190.727991 467.232,192.456 C471.984024,194.184009 475.751986,196.823982 478.536,200.376 L467.304,210.312 Z" id="bitcoin" fill="#FFFFFF"></path>
            </g>
        </g>
    </g>
</svg>